PathFileType	4	(X/Y/Z)	trial_0_0-299.trc
DataRate	CameraRate	NumFrames	NumMarkers	Units	OrigDataRate	OrigDataStartFrame	OrigNumFrames
60	60	11	27	m	60	112	299
Frame#	Time	RHip			RKnee			RAnkle			RBigToe			RSmallToe			RHeel			LHip			LKnee			LAnkle			LBigToe			LSmallToe			LHeel			Neck			Head			Nose			RShoulder			RElbow			RWrist			RThumb			RIndex			RPinky			LShoulder			LElbow			LWrist			LThumb			LIndex			LPinky		
		X1	Y1	Z1	X2	Y2	Z2	X3	Y3	Z3	X4	Y4	Z4	X5	Y5	Z5	X6	Y6	Z6	X7	Y7	Z7	X8	Y8	Z8	X9	Y9	Z9	X10	Y10	Z10	X11	Y11	Z11	X12	Y12	Z12	X13	Y13	Z13	X14	Y14	Z14	X15	Y15	Z15	X16	Y16	Z16	X17	Y17	Z17	X18	Y18	Z18	X19	Y19	Z19	X20	Y20	Z20	X21	Y21	Z21	X22	Y22	Z22	X23	Y23	Z23	X24	Y24	Z24	X25	Y25	Z25	X26	Y26	Z26	X27	Y27	Z27
113	1.8833333333333333	0.6095214399480264	1.0424396372035953	0.16745684475452807	1.6002835129099644	1.7577049256129713	0.21750438908520797	2.157966605319275	1.804562350169316	0.18122936837745984	2.4158152399196773	1.9836103654159256	0.09913774651390517	2.440100575351531	1.9816975010653834	0.21830467517217006	2.1869794697361864	1.7866663023308194	0.1867233695329707	0.0	0.0	0.0	0.0	0.0	0.0	0.0	0.0	0.0	0.0	0.0	0.0	0.0	0.0	0.0	1.6380480921292029	1.3759892150132789	0.016335970098996934	0.0	0.0	0.0	0.0	0.0	0.0	0.0	0.0	0.0	0.0	0.0	0.0	0.643674183721606	1.5386637569064843	0.35990032780456205	0.0	0.0	0.0	0.0	0.0	0.0	0.0	0.0	0.0	0.0	0.0	0.0	0.0	0.0	0.0	0.0	0.0	0.0	0.0	0.0	0.0	0.0	0.0	0.0	0.0	0.0	0.0	0.0	0.0	0.0
114	1.9	0.40748750382523924	0.6953945425824609	0.11102321506312592	1.6068219112939386	1.7560345544193394	0.21776650202361963	2.163348377449103	1.8051659746903637	0.18151649963263913	2.3510230336143163	1.932099472331469	0.09605659890469667	2.44132996726345	1.9845447429414258	0.21645970149614652	2.18874062151075	1.7871815406830698	0.18731530388314183	0.0	0.0	0.0	0.0	0.0	0.0	0.0	0.0	0.0	0.0	0.0	0.0	0.0	0.0	0.0	1.2761366854042904	1.07191077949495	0.012727839920902533	0.0	0.0	0.0	0.0	0.0	0.0	0.0	0.0	0.0	0.0	0.0	0.0	0.5575811969627826	1.3368743520168944	0.3018253896813196	0.0	0.0	0.0	0.0	0.0	0.0	0.0	0.0	0.0	0.0	0.0	0.0	0.0	0.0	0.0	0.0	0.0	0.0	0.0	0.0	0.0	0.0	0.0	0.0	0.0	0.0	0.0	0.0	0.0	0.0
115	1.9166666666666667	0.2307888293208779	0.39322051590920437	0.06242535550370747	1.613596770140692	1.7545020239646338	0.2181004103353552	2.169150346036344	1.8058885111996386	0.18177915295590552	2.1928293855990857	1.803054148128032	0.08946560556429106	2.4421565473401494	1.9868130575644782	0.21472825552405145	2.1908503792947154	1.7876758350885988	0.18806483116977413	0.0	0.0	0.0	0.0	0.0	0.0	0.0	0.0	0.0	0.0	0.0	0.0	0.0	0.0	0.0	0.8539115883284216	0.7172754884944814	0.008522478548656958	0.0	0.0	0.0	0.0	0.0	0.0	0.0	0.0	0.0	0.0	0.0	0.0	0.431596402148693	1.0370330872197422	0.2269516055494928	0.0	0.0	0.0	0.0	0.0	0.0	0.0	0.0	0.0	0.0	0.0	0.0	0.0	0.0	0.0	0.0	0.0	0.0	0.0	0.0	0.0	0.0	0.0	0.0	0.0	0.0	0.0	0.0	0.0	0.0
116	1.9333333333333331	0.11637999978669242	0.1981470037470595	0.0311072988874366	1.6186449914102403	1.7532918882939263	0.21832246006063988	2.174364863537029	1.806536994470815	0.18211660606136437	1.896899904873335	1.5602218751980308	0.0773827991611192	2.4430340477928607	1.9894472050358825	0.21284171591439577	2.1927706934800004	1.788094845489701	0.18882458879766328	0.0	0.0	0.0	0.0	0.0	0.0	0.0	0.0	0.0	0.0	0.0	0.0	0.0	0.0	0.0	0.47872339957936166	0.4021550079604892	0.0047828242847154576	0.0	0.0	0.0	0.0	0.0	0.0	0.0	0.0	0.0	0.0	0.0	0.0	0.28836743276648186	0.6937929990175775	0.14803534211675629	0.0	0.0	0.0	0.0	0.0	0.0	0.0	0.0	0.0	0.0	0.0	0.0	0.0	0.0	0.0	0.0	0.0	0.0	0.0	0.0	0.0	0.0	0.0	0.0	0.0	0.0	0.0	0.0	0.0	0.0
117	1.95	0.07691317124432853	0.1311702478187437	0.019820767657730862	1.6201692059812642	1.7520815417659676	0.21810552564674662	2.1779263106775306	1.8066799538022165	0.182603415216951	1.4663992709467095	1.2063677477455683	0.05983499982620631	2.443531603058914	1.9921798504084696	0.21030767613235235	2.1936813237918624	1.78806880715281	0.18944686230028268	0.0	0.0	0.0	0.0	0.0	0.0	0.0	0.0	0.0	0.0	0.0	0.0	0.0	0.0	0.0	0.22047089086959276	0.18522778121507838	0.002205196716505876	0.0	0.0	0.0	0.0	0.0	0.0	0.0	0.0	0.0	0.0	0.0	0.0	0.16169035039437368	0.3892885581860883	0.08144835305859902	0.0	0.0	0.0	0.0	0.0	0.0	0.0	0.0	0.0	0.0	0.0	0.0	0.0	0.0	0.0	0.0	0.0	0.0	0.0	0.0	0.0	0.0	0.0	0.0	0.0	0.0	0.0	0.0	0.0	0.0
118	1.9666666666666663	0.11190382382501546	0.191356658282199	0.027812917840491024	1.6160126664605698	1.748901628773243	0.2169832963100206	2.1772311179478656	1.8044133625611831	0.18305883040154025	0.9786401713985826	0.8052027971308813	0.039941680067918116	2.440564655697927	1.9919835041053129	0.20660023637344338	2.1911210349987837	1.7856599535093158	0.18965497585661223	0.0	0.0	0.0	0.0	0.0	0.0	0.0	0.0	0.0	0.0	0.0	0.0	0.0	0.0	0.0	0.08216994726932084	0.06904224507158	0.000822788062652346	0.0	0.0	0.0	0.0	0.0	0.0	0.0	0.0	0.0	0.0	0.0	0.0	0.07449702965553252	0.17941851565392056	0.03698683575972433	0.0	0.0	0.0	0.0	0.0	0.0	0.0	0.0	0.0	0.0	0.0	0.0	0.0	0.0	0.0	0.0	0.0	0.0	0.0	0.0	0.0	0.0	0.0	0.0	0.0	0.0	0.0	0.0	0.0	0.0
119	1.9833333333333332	0.2163964863798301	0.3704773125251104	0.05334117302448647	1.6016279068577897	1.737895268338158	0.21418394827073955	2.1650185109048747	1.7937075904705875	0.18275344043563257	0.5482238643514177	0.45110205627316924	0.022378120362910273	2.4253987054791333	1.9811482339521018	0.20112484563192828	2.177961745003164	1.774953030170119	0.1887923102854019	0.0	0.0	0.0	0.0	0.0	0.0	0.0	0.0	0.0	0.0	0.0	0.0	0.0	0.0	0.0	0.024521035262348154	0.02060552319412742	0.00024577612169182243	0.0	0.0	0.0	0.0	0.0	0.0	0.0	0.0	0.0	0.0	0.0	0.0	0.027779916803722743	0.06691315223741796	0.013642374748291084	0.0	0.0	0.0	0.0	0.0	0.0	0.0	0.0	0.0	0.0	0.0	0.0	0.0	0.0	0.0	0.0	0.0	0.0	0.0	0.0	0.0	0.0	0.0	0.0	0.0	0.0	0.0	0.0	0.0	0.0
120	2.0	0.3703299626255204	0.6346369632536051	0.09114962537635315	1.5677270611274885	1.7070829808690529	0.20839913443636382	2.1263289481584664	1.761833709988922	0.18015561945432623	0.25241323501918367	0.2077062629682337	0.010304065521816761	2.38086134771934	1.945579412238002	0.19296491658611467	2.1394146970551136	1.7437197907396293	0.18563014172028214	0.0	0.0	0.0	0.0	0.0	0.0	0.0	0.0	0.0	0.0	0.0	0.0	0.0	0.0	0.0	0.0058061921215894685	0.004879474272427211	5.8244162722018314e-05	0.0	0.0	0.0	0.0	0.0	0.0	0.0	0.0	0.0	0.0	0.0	0.0	0.008293109866735834	0.01997602312459114	0.004038956329463243	0.0	0.0	0.0	0.0	0.0	0.0	0.0	0.0	0.0	0.0	0.0	0.0	0.0	0.0	0.0	0.0	0.0	0.0	0.0	0.0	0.0	0.0	0.0	0.0	0.0	0.0	0.0	0.0	0.0	0.0
121	2.0166666666666666	0.5295767949189222	0.9088139042744798	0.13014352991023093	1.5037884486549227	1.642800654908183	0.19827063886799687	2.0440870678861613	1.6941735589171871	0.17349716909005272	0.09407951284556797	0.07741833121943374	0.0038406060479379716	2.287909820830993	1.8701971406762667	0.18116663845879344	2.0584323243418168	1.677948431152435	0.17884877405699717	0.0	0.0	0.0	0.0	0.0	0.0	0.0	0.0	0.0	0.0	0.0	0.0	0.0	0.0	0.0	0.001074540551939205	0.0009031215447541577	1.0789115269887261e-05	0.0	0.0	0.0	0.0	0.0	0.0	0.0	0.0	0.0	0.0	0.0	0.0	0.001964185401358065	0.004731250625554782	0.0009503064998743675	0.0	0.0	0.0	0.0	0.0	0.0	0.0	0.0	0.0	0.0	0.0	0.0	0.0	0.0	0.0	0.0	0.0	0.0	0.0	0.0	0.0	0.0	0.0	0.0	0.0	0.0	0.0	0.0	0.0	0.0
122	2.033333333333333	0.6473148066519665	1.113156151848389	0.15850139763135995	1.4130868227103603	1.5467479990606297	0.18430776654396813	1.9206098917683354	1.5924500448528849	0.16278720799386848	0.02807645678919297	0.0231044736920623	0.0011461534473624197	2.1497313955637924	1.758291604908138	0.16633630786423462	1.93690687448008	1.5792587450118063	0.16871709451657274	0.0	0.0	0.0	0.0	0.0	0.0	0.0	0.0	0.0	0.0	0.0	0.0	0.0	0.0	0.0	0.00014285719090642896	0.00012009849549195092	1.437877140348654e-06	0.0	0.0	0.0	0.0	0.0	0.0	0.0	0.0	0.0	0.0	0.0	0.0	0.0003636589419087442	0.000875897914082212	0.0001747189644313275	0.0	0.0	0.0	0.0	0.0	0.0	0.0	0.0	0.0	0.0	0.0	0.0	0.0	0.0	0.0	0.0	0.0	0.0	0.0	0.0	0.0	0.0	0.0	0.0	0.0	0.0	0.0	0.0	0.0	0.0
123	2.05	0.7117127591532902	1.2270856752840287	0.17293054264803068	1.3278542106311035	1.452893824648547	0.1707705425535642	1.7987137143144576	1.4925059574854334	0.15167578046147642	0.006648358985095328	0.005471041897525961	0.0002713974824930101	2.015269061075542	1.6505937104011608	0.15239698512549954	1.8169271806514773	1.4822039288265922	0.15874332509256436	0.0	0.0	0.0	0.0	0.0	0.0	0.0	0.0	0.0	0.0	0.0	0.0	0.0	0.0	0.0	0.0	0.0	0.0	0.0	0.0	0.0	0.0	0.0	0.0	0.0	0.0	0.0	0.0	0.0	0.0	4.8348370554712e-05	0.00011641515686960822	2.2956522232681187e-05	0.0	0.0	0.0	0.0	0.0	0.0	0.0	0.0	0.0	0.0	0.0	0.0	0.0	0.0	0.0	0.0	0.0	0.0	0.0	0.0	0.0	0.0	0.0	0.0	0.0	0.0	0.0	0.0	0.0	0.0
